<mxfile host="app.diagrams.net" modified="2023-01-27T20:00:08.912Z" agent="5.0 (Windows NT 10.0; Win64; x64) AppleWebKit/537.36 (KHTML, like Gecko) Chrome/109.0.0.0 Safari/537.36" etag="f3O7IvccAsJizS6jDm5h" version="20.8.13" type="github">
  <diagram name="Page-1" id="OGRp49UVCb39jeSWY-7e">
    <mxGraphModel dx="2284" dy="1843" grid="1" gridSize="10" guides="1" tooltips="1" connect="1" arrows="1" fold="1" page="1" pageScale="1" pageWidth="850" pageHeight="1100" math="0" shadow="0">
      <root>
        <mxCell id="0" />
        <mxCell id="1" parent="0" />
        <mxCell id="jqPJKUNV1gk7dgje5MiJ-1" value="&lt;h1&gt;Call Day Reminders&lt;/h1&gt;&lt;div&gt;we can use the time of day to determine what message format the client receives&lt;/div&gt;" style="text;html=1;strokeColor=none;fillColor=none;spacing=5;spacingTop=-20;whiteSpace=wrap;overflow=hidden;rounded=0;" vertex="1" parent="1">
          <mxGeometry x="50" y="30" width="190" height="120" as="geometry" />
        </mxCell>
        <mxCell id="jqPJKUNV1gk7dgje5MiJ-2" style="edgeStyle=orthogonalEdgeStyle;rounded=0;orthogonalLoop=1;jettySize=auto;html=1;entryX=0.5;entryY=0;entryDx=0;entryDy=0;" edge="1" parent="1" source="jqPJKUNV1gk7dgje5MiJ-3" target="jqPJKUNV1gk7dgje5MiJ-6">
          <mxGeometry relative="1" as="geometry" />
        </mxCell>
        <mxCell id="jqPJKUNV1gk7dgje5MiJ-3" value="Call Day Date&lt;br&gt;(from call day db)" style="shape=parallelogram;html=1;strokeWidth=2;perimeter=parallelogramPerimeter;whiteSpace=wrap;rounded=1;arcSize=12;size=0.23;" vertex="1" parent="1">
          <mxGeometry x="60" y="180" width="180" height="110" as="geometry" />
        </mxCell>
        <mxCell id="jqPJKUNV1gk7dgje5MiJ-4" value="Initially we will opt everyone into both options&amp;nbsp;" style="strokeWidth=2;html=1;shape=mxgraph.flowchart.annotation_2;align=left;labelPosition=right;pointerEvents=1;" vertex="1" parent="1">
          <mxGeometry x="220" y="190" width="110" height="100" as="geometry" />
        </mxCell>
        <mxCell id="jqPJKUNV1gk7dgje5MiJ-5" style="edgeStyle=orthogonalEdgeStyle;rounded=0;orthogonalLoop=1;jettySize=auto;html=1;exitX=0;exitY=0;exitDx=0;exitDy=0;entryX=0.995;entryY=0.2;entryDx=0;entryDy=0;entryPerimeter=0;" edge="1" parent="1" source="jqPJKUNV1gk7dgje5MiJ-6" target="jqPJKUNV1gk7dgje5MiJ-7">
          <mxGeometry relative="1" as="geometry">
            <Array as="points">
              <mxPoint x="260" y="420" />
              <mxPoint x="170" y="420" />
              <mxPoint x="170" y="452" />
            </Array>
          </mxGeometry>
        </mxCell>
        <mxCell id="jqPJKUNV1gk7dgje5MiJ-6" value="Clients preferred&lt;br&gt;contact method" style="rhombus;whiteSpace=wrap;html=1;strokeWidth=2;rounded=1;arcSize=12;" vertex="1" parent="1">
          <mxGeometry x="220" y="420" width="160" height="150" as="geometry" />
        </mxCell>
        <mxCell id="jqPJKUNV1gk7dgje5MiJ-7" value="CallDay.Notifications.Contact.Db" style="strokeWidth=2;html=1;shape=mxgraph.flowchart.database;whiteSpace=wrap;" vertex="1" parent="1">
          <mxGeometry x="-90" y="420" width="220" height="160" as="geometry" />
        </mxCell>
        <mxCell id="jqPJKUNV1gk7dgje5MiJ-8" value="References" style="text;html=1;align=center;verticalAlign=middle;resizable=0;points=[];autosize=1;strokeColor=none;fillColor=none;" vertex="1" parent="1">
          <mxGeometry x="160" y="420" width="100" height="30" as="geometry" />
        </mxCell>
        <mxCell id="jqPJKUNV1gk7dgje5MiJ-9" value="" style="endArrow=classic;html=1;rounded=0;exitX=0;exitY=0.5;exitDx=0;exitDy=0;entryX=0.5;entryY=0;entryDx=0;entryDy=0;" edge="1" parent="1" source="jqPJKUNV1gk7dgje5MiJ-6" target="jqPJKUNV1gk7dgje5MiJ-14">
          <mxGeometry relative="1" as="geometry">
            <mxPoint x="170" y="580" as="sourcePoint" />
            <mxPoint x="150" y="780" as="targetPoint" />
            <Array as="points">
              <mxPoint x="150" y="495" />
              <mxPoint x="150" y="720" />
              <mxPoint x="150" y="750" />
            </Array>
          </mxGeometry>
        </mxCell>
        <mxCell id="jqPJKUNV1gk7dgje5MiJ-10" value="Default" style="edgeLabel;resizable=0;html=1;align=center;verticalAlign=middle;" connectable="0" vertex="1" parent="jqPJKUNV1gk7dgje5MiJ-9">
          <mxGeometry relative="1" as="geometry" />
        </mxCell>
        <mxCell id="jqPJKUNV1gk7dgje5MiJ-11" style="edgeStyle=orthogonalEdgeStyle;rounded=0;orthogonalLoop=1;jettySize=auto;html=1;entryX=0;entryY=0.5;entryDx=0;entryDy=0;entryPerimeter=0;" edge="1" parent="1" source="jqPJKUNV1gk7dgje5MiJ-14" target="jqPJKUNV1gk7dgje5MiJ-16">
          <mxGeometry relative="1" as="geometry" />
        </mxCell>
        <mxCell id="jqPJKUNV1gk7dgje5MiJ-12" style="edgeStyle=orthogonalEdgeStyle;rounded=0;orthogonalLoop=1;jettySize=auto;html=1;" edge="1" parent="1" source="jqPJKUNV1gk7dgje5MiJ-14">
          <mxGeometry relative="1" as="geometry">
            <mxPoint x="-50" y="1000" as="targetPoint" />
          </mxGeometry>
        </mxCell>
        <mxCell id="jqPJKUNV1gk7dgje5MiJ-13" value="Internal Logic" style="edgeLabel;html=1;align=center;verticalAlign=middle;resizable=0;points=[];" vertex="1" connectable="0" parent="jqPJKUNV1gk7dgje5MiJ-12">
          <mxGeometry x="-0.0432" y="3" relative="1" as="geometry">
            <mxPoint as="offset" />
          </mxGeometry>
        </mxCell>
        <mxCell id="jqPJKUNV1gk7dgje5MiJ-14" value="Call_day_reminder(Contact_Id, Client_Id, Pref_Method [ ], One_day_Reminder )" style="verticalLabelPosition=bottom;verticalAlign=top;html=1;shape=process;whiteSpace=wrap;rounded=1;size=0.14;arcSize=6;" vertex="1" parent="1">
          <mxGeometry x="75" y="710" width="150" height="90" as="geometry" />
        </mxCell>
        <mxCell id="jqPJKUNV1gk7dgje5MiJ-15" value="Pref_Method [ ] == [&#39;Text&#39;, &#39;Email&#39;] by default&lt;br&gt;One_day_reminder == false by default" style="text;html=1;align=center;verticalAlign=middle;resizable=0;points=[];autosize=1;strokeColor=none;fillColor=none;" vertex="1" parent="1">
          <mxGeometry x="-140" y="610" width="290" height="50" as="geometry" />
        </mxCell>
        <mxCell id="jqPJKUNV1gk7dgje5MiJ-16" value="Client Receives a Text and Email for BOTH notifications during the day" style="strokeWidth=2;html=1;shape=mxgraph.flowchart.terminator;whiteSpace=wrap;" vertex="1" parent="1">
          <mxGeometry x="350" y="702.5" width="200" height="105" as="geometry" />
        </mxCell>
        <mxCell id="jqPJKUNV1gk7dgje5MiJ-17" value="" style="endArrow=classic;html=1;rounded=0;exitX=0.5;exitY=1;exitDx=0;exitDy=0;entryX=0;entryY=0.5;entryDx=0;entryDy=0;entryPerimeter=0;" edge="1" parent="1" source="jqPJKUNV1gk7dgje5MiJ-6" target="jqPJKUNV1gk7dgje5MiJ-20">
          <mxGeometry relative="1" as="geometry">
            <mxPoint x="310" y="580" as="sourcePoint" />
            <mxPoint x="560" y="600" as="targetPoint" />
            <Array as="points">
              <mxPoint x="300" y="600" />
            </Array>
          </mxGeometry>
        </mxCell>
        <mxCell id="jqPJKUNV1gk7dgje5MiJ-18" value="Text Only Client" style="edgeLabel;resizable=0;html=1;align=center;verticalAlign=middle;" connectable="0" vertex="1" parent="jqPJKUNV1gk7dgje5MiJ-17">
          <mxGeometry relative="1" as="geometry" />
        </mxCell>
        <mxCell id="jqPJKUNV1gk7dgje5MiJ-19" value="Pref_Method [ ] == [&#39;Text&#39;]&amp;nbsp;" style="text;html=1;align=center;verticalAlign=middle;resizable=0;points=[];autosize=1;strokeColor=none;fillColor=none;" vertex="1" parent="1">
          <mxGeometry x="330" y="610" width="190" height="30" as="geometry" />
        </mxCell>
        <mxCell id="jqPJKUNV1gk7dgje5MiJ-20" value="One_day_reminder Flag" style="strokeWidth=2;html=1;shape=mxgraph.flowchart.decision;whiteSpace=wrap;" vertex="1" parent="1">
          <mxGeometry x="580" y="530" width="140" height="140" as="geometry" />
        </mxCell>
        <mxCell id="jqPJKUNV1gk7dgje5MiJ-21" value="" style="endArrow=classic;html=1;rounded=0;exitX=0.5;exitY=1;exitDx=0;exitDy=0;exitPerimeter=0;entryX=0.5;entryY=0;entryDx=0;entryDy=0;" edge="1" parent="1" source="jqPJKUNV1gk7dgje5MiJ-20" target="jqPJKUNV1gk7dgje5MiJ-36">
          <mxGeometry relative="1" as="geometry">
            <mxPoint x="650" y="700" as="sourcePoint" />
            <mxPoint x="640" y="830" as="targetPoint" />
          </mxGeometry>
        </mxCell>
        <mxCell id="jqPJKUNV1gk7dgje5MiJ-22" value="True" style="edgeLabel;resizable=0;html=1;align=center;verticalAlign=middle;" connectable="0" vertex="1" parent="jqPJKUNV1gk7dgje5MiJ-21">
          <mxGeometry relative="1" as="geometry" />
        </mxCell>
        <mxCell id="jqPJKUNV1gk7dgje5MiJ-23" value="Client Receives a Text ONCE on the designated call day" style="strokeWidth=2;html=1;shape=mxgraph.flowchart.terminator;whiteSpace=wrap;" vertex="1" parent="1">
          <mxGeometry x="800" y="832.5" width="200" height="105" as="geometry" />
        </mxCell>
        <mxCell id="jqPJKUNV1gk7dgje5MiJ-24" value="" style="endArrow=classic;html=1;rounded=0;exitX=1;exitY=0.5;exitDx=0;exitDy=0;exitPerimeter=0;entryX=0;entryY=0.5;entryDx=0;entryDy=0;" edge="1" parent="1" source="jqPJKUNV1gk7dgje5MiJ-20" target="jqPJKUNV1gk7dgje5MiJ-34">
          <mxGeometry relative="1" as="geometry">
            <mxPoint x="740" y="580" as="sourcePoint" />
            <mxPoint x="850" y="600" as="targetPoint" />
          </mxGeometry>
        </mxCell>
        <mxCell id="jqPJKUNV1gk7dgje5MiJ-25" value="False" style="edgeLabel;resizable=0;html=1;align=center;verticalAlign=middle;" connectable="0" vertex="1" parent="jqPJKUNV1gk7dgje5MiJ-24">
          <mxGeometry relative="1" as="geometry" />
        </mxCell>
        <mxCell id="jqPJKUNV1gk7dgje5MiJ-26" value="Client Receives a Text TWICE on the designated call day" style="strokeWidth=2;html=1;shape=mxgraph.flowchart.terminator;whiteSpace=wrap;" vertex="1" parent="1">
          <mxGeometry x="1280" y="290" width="200" height="105" as="geometry" />
        </mxCell>
        <mxCell id="jqPJKUNV1gk7dgje5MiJ-27" value="" style="endArrow=classic;html=1;rounded=0;exitX=0.5;exitY=0;exitDx=0;exitDy=0;exitPerimeter=0;" edge="1" parent="1" source="jqPJKUNV1gk7dgje5MiJ-20">
          <mxGeometry relative="1" as="geometry">
            <mxPoint x="670" y="499.5" as="sourcePoint" />
            <mxPoint x="760" y="600" as="targetPoint" />
            <Array as="points">
              <mxPoint x="650" y="480" />
              <mxPoint x="760" y="480" />
            </Array>
          </mxGeometry>
        </mxCell>
        <mxCell id="jqPJKUNV1gk7dgje5MiJ-28" value="Default" style="edgeLabel;resizable=0;html=1;align=center;verticalAlign=middle;" connectable="0" vertex="1" parent="jqPJKUNV1gk7dgje5MiJ-27">
          <mxGeometry relative="1" as="geometry" />
        </mxCell>
        <mxCell id="jqPJKUNV1gk7dgje5MiJ-29" style="edgeStyle=orthogonalEdgeStyle;rounded=0;orthogonalLoop=1;jettySize=auto;html=1;entryX=0;entryY=0.5;entryDx=0;entryDy=0;entryPerimeter=0;" edge="1" parent="1" source="jqPJKUNV1gk7dgje5MiJ-32" target="jqPJKUNV1gk7dgje5MiJ-37">
          <mxGeometry relative="1" as="geometry" />
        </mxCell>
        <mxCell id="jqPJKUNV1gk7dgje5MiJ-30" style="edgeStyle=orthogonalEdgeStyle;rounded=0;orthogonalLoop=1;jettySize=auto;html=1;exitX=1;exitY=0.75;exitDx=0;exitDy=0;entryX=0;entryY=0.5;entryDx=0;entryDy=0;entryPerimeter=0;" edge="1" parent="1" source="jqPJKUNV1gk7dgje5MiJ-32" target="jqPJKUNV1gk7dgje5MiJ-38">
          <mxGeometry relative="1" as="geometry" />
        </mxCell>
        <mxCell id="jqPJKUNV1gk7dgje5MiJ-31" style="edgeStyle=orthogonalEdgeStyle;rounded=0;orthogonalLoop=1;jettySize=auto;html=1;exitX=1;exitY=1;exitDx=0;exitDy=0;entryX=0;entryY=0.5;entryDx=0;entryDy=0;entryPerimeter=0;" edge="1" parent="1" source="jqPJKUNV1gk7dgje5MiJ-32" target="jqPJKUNV1gk7dgje5MiJ-39">
          <mxGeometry relative="1" as="geometry" />
        </mxCell>
        <mxCell id="jqPJKUNV1gk7dgje5MiJ-32" value="Contact_Id is a Global Variable,&lt;br&gt;Client_Id is passed in and (hopefully) unique,&lt;br&gt;Pref_method is an array of preferred contact methods obtained from the CallDay.Notifications.Contacts.Db&lt;br&gt;one_day_reminder is a bool associated with how many reminders to send&lt;br&gt;&lt;br&gt;if(CallDay.Notifications.Contacts.Exclude.Db.Contains(Contact_Id){&lt;br&gt;//we essentially skip the loop }&lt;br&gt;&lt;br&gt;there is also a need to check whether the client wants to be notified the night before or the day of&lt;br&gt;(CallDay.Notifications.Contacts.NotifDay.Db" style="rounded=1;whiteSpace=wrap;html=1;absoluteArcSize=1;arcSize=14;strokeWidth=2;" vertex="1" parent="1">
          <mxGeometry x="-180" y="1000" width="420" height="290" as="geometry" />
        </mxCell>
        <mxCell id="jqPJKUNV1gk7dgje5MiJ-33" style="edgeStyle=orthogonalEdgeStyle;rounded=0;orthogonalLoop=1;jettySize=auto;html=1;entryX=0;entryY=0.5;entryDx=0;entryDy=0;entryPerimeter=0;" edge="1" parent="1" source="jqPJKUNV1gk7dgje5MiJ-34" target="jqPJKUNV1gk7dgje5MiJ-43">
          <mxGeometry relative="1" as="geometry">
            <mxPoint x="1080" y="600" as="targetPoint" />
          </mxGeometry>
        </mxCell>
        <mxCell id="jqPJKUNV1gk7dgje5MiJ-34" value="Call_day_reminder(Contact_Id, Client_Id, Pref_Method [ ], One_day_Reminder )" style="verticalLabelPosition=bottom;verticalAlign=top;html=1;shape=process;whiteSpace=wrap;rounded=1;size=0.14;arcSize=6;" vertex="1" parent="1">
          <mxGeometry x="860" y="555" width="150" height="90" as="geometry" />
        </mxCell>
        <mxCell id="jqPJKUNV1gk7dgje5MiJ-35" style="edgeStyle=orthogonalEdgeStyle;rounded=0;orthogonalLoop=1;jettySize=auto;html=1;entryX=0;entryY=0.5;entryDx=0;entryDy=0;entryPerimeter=0;" edge="1" parent="1" source="jqPJKUNV1gk7dgje5MiJ-36" target="jqPJKUNV1gk7dgje5MiJ-23">
          <mxGeometry relative="1" as="geometry" />
        </mxCell>
        <mxCell id="jqPJKUNV1gk7dgje5MiJ-36" value="Call_day_reminder(Contact_Id, Client_Id, Pref_Method [ ], One_day_Reminder )" style="verticalLabelPosition=bottom;verticalAlign=top;html=1;shape=process;whiteSpace=wrap;rounded=1;size=0.14;arcSize=6;" vertex="1" parent="1">
          <mxGeometry x="575" y="840" width="150" height="90" as="geometry" />
        </mxCell>
        <mxCell id="jqPJKUNV1gk7dgje5MiJ-37" value="CallDay.Notifications.Contacts.Exclude.Db" style="strokeWidth=2;html=1;shape=mxgraph.flowchart.database;whiteSpace=wrap;" vertex="1" parent="1">
          <mxGeometry x="350" y="1040" width="300" height="240" as="geometry" />
        </mxCell>
        <mxCell id="jqPJKUNV1gk7dgje5MiJ-38" value="CallDay.Notifications.Contacts.NotifDay.Db" style="strokeWidth=2;html=1;shape=mxgraph.flowchart.database;whiteSpace=wrap;" vertex="1" parent="1">
          <mxGeometry x="350" y="1310" width="300" height="240" as="geometry" />
        </mxCell>
        <mxCell id="jqPJKUNV1gk7dgje5MiJ-39" value="CallDay.Notifications.Contact.Db" style="strokeWidth=2;html=1;shape=mxgraph.flowchart.database;whiteSpace=wrap;" vertex="1" parent="1">
          <mxGeometry x="350" y="1610" width="300" height="230" as="geometry" />
        </mxCell>
        <mxCell id="jqPJKUNV1gk7dgje5MiJ-40" style="edgeStyle=orthogonalEdgeStyle;rounded=0;orthogonalLoop=1;jettySize=auto;html=1;exitX=0.75;exitY=0;exitDx=0;exitDy=0;entryX=0;entryY=0.5;entryDx=0;entryDy=0;entryPerimeter=0;" edge="1" parent="1" source="jqPJKUNV1gk7dgje5MiJ-41" target="jqPJKUNV1gk7dgje5MiJ-80">
          <mxGeometry relative="1" as="geometry">
            <Array as="points">
              <mxPoint x="127" y="1290" />
              <mxPoint x="240" y="1290" />
              <mxPoint x="240" y="1995" />
            </Array>
          </mxGeometry>
        </mxCell>
        <mxCell id="jqPJKUNV1gk7dgje5MiJ-41" value="&lt;h1&gt;The Call Day Database&lt;/h1&gt;&lt;div&gt;The call day db already removes clients when they process their payroll, so there is almost no need to check if a client has already been notified, we can determine based on either a bool checked, or we can scan the notes in the callday db for a note added when we first notify them, thus allowing us to trigger the second notif format&lt;/div&gt;" style="text;html=1;strokeColor=none;fillColor=none;spacing=5;spacingTop=-20;whiteSpace=wrap;overflow=hidden;rounded=0;" vertex="1" parent="1">
          <mxGeometry x="-180" y="1300" width="410" height="230" as="geometry" />
        </mxCell>
        <mxCell id="jqPJKUNV1gk7dgje5MiJ-42" value="This Contact Content will always be the same as it is a single reminder. The only difference will be if it is a night before or a day of reminder" style="text;html=1;strokeColor=none;fillColor=none;align=center;verticalAlign=middle;whiteSpace=wrap;rounded=0;" vertex="1" parent="1">
          <mxGeometry x="800" y="750" width="240" height="70" as="geometry" />
        </mxCell>
        <mxCell id="jqPJKUNV1gk7dgje5MiJ-43" value="Night_before Flag&amp;nbsp;" style="strokeWidth=2;html=1;shape=mxgraph.flowchart.decision;whiteSpace=wrap;" vertex="1" parent="1">
          <mxGeometry x="1120" y="515" width="170" height="170" as="geometry" />
        </mxCell>
        <mxCell id="jqPJKUNV1gk7dgje5MiJ-44" value="" style="endArrow=classic;html=1;rounded=0;exitX=0.5;exitY=0;exitDx=0;exitDy=0;exitPerimeter=0;entryX=-0.021;entryY=0.437;entryDx=0;entryDy=0;entryPerimeter=0;" edge="1" parent="1" source="jqPJKUNV1gk7dgje5MiJ-43" target="jqPJKUNV1gk7dgje5MiJ-26">
          <mxGeometry relative="1" as="geometry">
            <mxPoint x="1200" y="470" as="sourcePoint" />
            <mxPoint x="1300" y="470" as="targetPoint" />
            <Array as="points">
              <mxPoint x="1205" y="336" />
            </Array>
          </mxGeometry>
        </mxCell>
        <mxCell id="jqPJKUNV1gk7dgje5MiJ-45" value="False" style="edgeLabel;resizable=0;html=1;align=center;verticalAlign=middle;" connectable="0" vertex="1" parent="jqPJKUNV1gk7dgje5MiJ-44">
          <mxGeometry relative="1" as="geometry" />
        </mxCell>
        <mxCell id="jqPJKUNV1gk7dgje5MiJ-46" value="" style="endArrow=classic;html=1;rounded=0;exitX=1;exitY=0.5;exitDx=0;exitDy=0;exitPerimeter=0;" edge="1" parent="1" source="jqPJKUNV1gk7dgje5MiJ-43">
          <mxGeometry relative="1" as="geometry">
            <mxPoint x="1290" y="600" as="sourcePoint" />
            <mxPoint x="1205" y="450" as="targetPoint" />
            <Array as="points">
              <mxPoint x="1290" y="450" />
            </Array>
          </mxGeometry>
        </mxCell>
        <mxCell id="jqPJKUNV1gk7dgje5MiJ-47" value="default" style="edgeLabel;resizable=0;html=1;align=center;verticalAlign=middle;" connectable="0" vertex="1" parent="jqPJKUNV1gk7dgje5MiJ-46">
          <mxGeometry relative="1" as="geometry" />
        </mxCell>
        <mxCell id="jqPJKUNV1gk7dgje5MiJ-48" value="Client receives TWO texts, one the night before the call day and one the day of" style="strokeWidth=2;html=1;shape=mxgraph.flowchart.terminator;whiteSpace=wrap;" vertex="1" parent="1">
          <mxGeometry x="1340" y="702.5" width="210" height="105" as="geometry" />
        </mxCell>
        <mxCell id="jqPJKUNV1gk7dgje5MiJ-49" value="" style="endArrow=classic;html=1;rounded=0;exitX=0.5;exitY=1;exitDx=0;exitDy=0;exitPerimeter=0;entryX=0;entryY=0.5;entryDx=0;entryDy=0;entryPerimeter=0;" edge="1" parent="1" source="jqPJKUNV1gk7dgje5MiJ-43" target="jqPJKUNV1gk7dgje5MiJ-48">
          <mxGeometry relative="1" as="geometry">
            <mxPoint x="1210" y="730" as="sourcePoint" />
            <mxPoint x="1310" y="730" as="targetPoint" />
            <Array as="points">
              <mxPoint x="1205" y="755" />
            </Array>
          </mxGeometry>
        </mxCell>
        <mxCell id="jqPJKUNV1gk7dgje5MiJ-50" value="True" style="edgeLabel;resizable=0;html=1;align=center;verticalAlign=middle;" connectable="0" vertex="1" parent="jqPJKUNV1gk7dgje5MiJ-49">
          <mxGeometry relative="1" as="geometry" />
        </mxCell>
        <mxCell id="jqPJKUNV1gk7dgje5MiJ-51" value="&lt;h1&gt;What Do We Do if a Client requests to change the way they are notified&lt;/h1&gt;" style="text;html=1;strokeColor=none;fillColor=none;spacing=5;spacingTop=-20;whiteSpace=wrap;overflow=hidden;rounded=0;" vertex="1" parent="1">
          <mxGeometry x="-480" y="1740" width="600" height="80" as="geometry" />
        </mxCell>
        <mxCell id="jqPJKUNV1gk7dgje5MiJ-52" value="" style="endArrow=classic;html=1;rounded=0;exitX=0.5;exitY=1;exitDx=0;exitDy=0;" edge="1" parent="1" source="jqPJKUNV1gk7dgje5MiJ-51">
          <mxGeometry width="50" height="50" relative="1" as="geometry">
            <mxPoint x="-180" y="1920" as="sourcePoint" />
            <mxPoint x="-180" y="1910" as="targetPoint" />
          </mxGeometry>
        </mxCell>
        <mxCell id="jqPJKUNV1gk7dgje5MiJ-53" value="Vertical Container" style="swimlane;whiteSpace=wrap;html=1;" vertex="1" parent="1">
          <mxGeometry x="-480" y="1910" width="600" height="580" as="geometry" />
        </mxCell>
        <mxCell id="jqPJKUNV1gk7dgje5MiJ-54" value="" style="endArrow=classic;html=1;rounded=0;exitX=1;exitY=0.5;exitDx=0;exitDy=0;entryX=0;entryY=0.5;entryDx=0;entryDy=0;entryPerimeter=0;" edge="1" parent="1" source="jqPJKUNV1gk7dgje5MiJ-6" target="jqPJKUNV1gk7dgje5MiJ-58">
          <mxGeometry relative="1" as="geometry">
            <mxPoint x="380" y="495" as="sourcePoint" />
            <mxPoint x="700" y="210" as="targetPoint" />
            <Array as="points">
              <mxPoint x="620" y="495" />
              <mxPoint x="620" y="50" />
            </Array>
          </mxGeometry>
        </mxCell>
        <mxCell id="jqPJKUNV1gk7dgje5MiJ-55" value="Email Only Client" style="edgeLabel;resizable=0;html=1;align=center;verticalAlign=middle;" connectable="0" vertex="1" parent="jqPJKUNV1gk7dgje5MiJ-54">
          <mxGeometry relative="1" as="geometry" />
        </mxCell>
        <mxCell id="jqPJKUNV1gk7dgje5MiJ-56" value="Pref_Method [ ] == [&#39;Email&#39;]" style="text;html=1;align=center;verticalAlign=middle;resizable=0;points=[];autosize=1;strokeColor=none;fillColor=none;" vertex="1" parent="1">
          <mxGeometry x="350" y="450" width="190" height="30" as="geometry" />
        </mxCell>
        <mxCell id="jqPJKUNV1gk7dgje5MiJ-57" value="True" style="edgeLabel;resizable=0;html=1;align=center;verticalAlign=middle;" connectable="0" vertex="1" parent="1">
          <mxGeometry x="719.66" y="514.9975862068965" as="geometry" />
        </mxCell>
        <mxCell id="jqPJKUNV1gk7dgje5MiJ-58" value="One_day_reminder Flag" style="strokeWidth=2;html=1;shape=mxgraph.flowchart.decision;whiteSpace=wrap;" vertex="1" parent="1">
          <mxGeometry x="705" y="-20" width="140" height="140" as="geometry" />
        </mxCell>
        <mxCell id="jqPJKUNV1gk7dgje5MiJ-59" value="" style="endArrow=classic;html=1;rounded=0;exitX=0.5;exitY=1;exitDx=0;exitDy=0;exitPerimeter=0;entryX=0.5;entryY=0;entryDx=0;entryDy=0;" edge="1" parent="1" source="jqPJKUNV1gk7dgje5MiJ-58" target="jqPJKUNV1gk7dgje5MiJ-70">
          <mxGeometry relative="1" as="geometry">
            <mxPoint x="775" y="150" as="sourcePoint" />
            <mxPoint x="765" y="280" as="targetPoint" />
          </mxGeometry>
        </mxCell>
        <mxCell id="jqPJKUNV1gk7dgje5MiJ-60" value="True" style="edgeLabel;resizable=0;html=1;align=center;verticalAlign=middle;" connectable="0" vertex="1" parent="jqPJKUNV1gk7dgje5MiJ-59">
          <mxGeometry relative="1" as="geometry" />
        </mxCell>
        <mxCell id="jqPJKUNV1gk7dgje5MiJ-61" value="Client Receives an Email ONCE on the designated call day" style="strokeWidth=2;html=1;shape=mxgraph.flowchart.terminator;whiteSpace=wrap;" vertex="1" parent="1">
          <mxGeometry x="925" y="282.5" width="200" height="105" as="geometry" />
        </mxCell>
        <mxCell id="jqPJKUNV1gk7dgje5MiJ-62" value="" style="endArrow=classic;html=1;rounded=0;exitX=1;exitY=0.5;exitDx=0;exitDy=0;exitPerimeter=0;entryX=0;entryY=0.5;entryDx=0;entryDy=0;" edge="1" parent="1" source="jqPJKUNV1gk7dgje5MiJ-58" target="jqPJKUNV1gk7dgje5MiJ-68">
          <mxGeometry relative="1" as="geometry">
            <mxPoint x="865" y="30" as="sourcePoint" />
            <mxPoint x="975" y="50" as="targetPoint" />
          </mxGeometry>
        </mxCell>
        <mxCell id="jqPJKUNV1gk7dgje5MiJ-63" value="False" style="edgeLabel;resizable=0;html=1;align=center;verticalAlign=middle;" connectable="0" vertex="1" parent="jqPJKUNV1gk7dgje5MiJ-62">
          <mxGeometry relative="1" as="geometry" />
        </mxCell>
        <mxCell id="jqPJKUNV1gk7dgje5MiJ-64" value="Client Receives a email TWICE on the designated call day" style="strokeWidth=2;html=1;shape=mxgraph.flowchart.terminator;whiteSpace=wrap;" vertex="1" parent="1">
          <mxGeometry x="1405" y="-260" width="200" height="105" as="geometry" />
        </mxCell>
        <mxCell id="jqPJKUNV1gk7dgje5MiJ-65" value="" style="endArrow=classic;html=1;rounded=0;exitX=0.5;exitY=0;exitDx=0;exitDy=0;exitPerimeter=0;" edge="1" parent="1" source="jqPJKUNV1gk7dgje5MiJ-58">
          <mxGeometry relative="1" as="geometry">
            <mxPoint x="795" y="-50.5" as="sourcePoint" />
            <mxPoint x="885" y="50" as="targetPoint" />
            <Array as="points">
              <mxPoint x="775" y="-70" />
              <mxPoint x="885" y="-70" />
            </Array>
          </mxGeometry>
        </mxCell>
        <mxCell id="jqPJKUNV1gk7dgje5MiJ-66" value="Default" style="edgeLabel;resizable=0;html=1;align=center;verticalAlign=middle;" connectable="0" vertex="1" parent="jqPJKUNV1gk7dgje5MiJ-65">
          <mxGeometry relative="1" as="geometry" />
        </mxCell>
        <mxCell id="jqPJKUNV1gk7dgje5MiJ-67" style="edgeStyle=orthogonalEdgeStyle;rounded=0;orthogonalLoop=1;jettySize=auto;html=1;entryX=0;entryY=0.5;entryDx=0;entryDy=0;entryPerimeter=0;" edge="1" parent="1" source="jqPJKUNV1gk7dgje5MiJ-68" target="jqPJKUNV1gk7dgje5MiJ-72">
          <mxGeometry relative="1" as="geometry">
            <mxPoint x="1205" y="50" as="targetPoint" />
          </mxGeometry>
        </mxCell>
        <mxCell id="jqPJKUNV1gk7dgje5MiJ-68" value="Call_day_reminder(Contact_Id, Client_Id, Pref_Method [ ], One_day_Reminder )" style="verticalLabelPosition=bottom;verticalAlign=top;html=1;shape=process;whiteSpace=wrap;rounded=1;size=0.14;arcSize=6;" vertex="1" parent="1">
          <mxGeometry x="985" y="5" width="150" height="90" as="geometry" />
        </mxCell>
        <mxCell id="jqPJKUNV1gk7dgje5MiJ-69" style="edgeStyle=orthogonalEdgeStyle;rounded=0;orthogonalLoop=1;jettySize=auto;html=1;entryX=0;entryY=0.5;entryDx=0;entryDy=0;entryPerimeter=0;" edge="1" parent="1" source="jqPJKUNV1gk7dgje5MiJ-70" target="jqPJKUNV1gk7dgje5MiJ-61">
          <mxGeometry relative="1" as="geometry" />
        </mxCell>
        <mxCell id="jqPJKUNV1gk7dgje5MiJ-70" value="Call_day_reminder(Contact_Id, Client_Id, Pref_Method [ ], One_day_Reminder )" style="verticalLabelPosition=bottom;verticalAlign=top;html=1;shape=process;whiteSpace=wrap;rounded=1;size=0.14;arcSize=6;" vertex="1" parent="1">
          <mxGeometry x="700" y="290" width="150" height="90" as="geometry" />
        </mxCell>
        <mxCell id="jqPJKUNV1gk7dgje5MiJ-71" value="This Contact Content will always be the same as it is a single reminder. The only difference will be if it is a night before or a day of reminder" style="text;html=1;strokeColor=none;fillColor=none;align=center;verticalAlign=middle;whiteSpace=wrap;rounded=0;" vertex="1" parent="1">
          <mxGeometry x="925" y="200" width="240" height="70" as="geometry" />
        </mxCell>
        <mxCell id="jqPJKUNV1gk7dgje5MiJ-72" value="Night_before Flag&amp;nbsp;" style="strokeWidth=2;html=1;shape=mxgraph.flowchart.decision;whiteSpace=wrap;" vertex="1" parent="1">
          <mxGeometry x="1245" y="-35" width="170" height="170" as="geometry" />
        </mxCell>
        <mxCell id="jqPJKUNV1gk7dgje5MiJ-73" value="" style="endArrow=classic;html=1;rounded=0;exitX=0.5;exitY=0;exitDx=0;exitDy=0;exitPerimeter=0;entryX=-0.021;entryY=0.437;entryDx=0;entryDy=0;entryPerimeter=0;" edge="1" parent="1" source="jqPJKUNV1gk7dgje5MiJ-72" target="jqPJKUNV1gk7dgje5MiJ-64">
          <mxGeometry relative="1" as="geometry">
            <mxPoint x="1325" y="-80" as="sourcePoint" />
            <mxPoint x="1425" y="-80" as="targetPoint" />
            <Array as="points">
              <mxPoint x="1330" y="-214" />
            </Array>
          </mxGeometry>
        </mxCell>
        <mxCell id="jqPJKUNV1gk7dgje5MiJ-74" value="False" style="edgeLabel;resizable=0;html=1;align=center;verticalAlign=middle;" connectable="0" vertex="1" parent="jqPJKUNV1gk7dgje5MiJ-73">
          <mxGeometry relative="1" as="geometry" />
        </mxCell>
        <mxCell id="jqPJKUNV1gk7dgje5MiJ-75" value="" style="endArrow=classic;html=1;rounded=0;exitX=1;exitY=0.5;exitDx=0;exitDy=0;exitPerimeter=0;" edge="1" parent="1" source="jqPJKUNV1gk7dgje5MiJ-72">
          <mxGeometry relative="1" as="geometry">
            <mxPoint x="1415" y="50" as="sourcePoint" />
            <mxPoint x="1330" y="-100" as="targetPoint" />
            <Array as="points">
              <mxPoint x="1415" y="-100" />
            </Array>
          </mxGeometry>
        </mxCell>
        <mxCell id="jqPJKUNV1gk7dgje5MiJ-76" value="default" style="edgeLabel;resizable=0;html=1;align=center;verticalAlign=middle;" connectable="0" vertex="1" parent="jqPJKUNV1gk7dgje5MiJ-75">
          <mxGeometry relative="1" as="geometry" />
        </mxCell>
        <mxCell id="jqPJKUNV1gk7dgje5MiJ-77" value="" style="endArrow=classic;html=1;rounded=0;exitX=0.5;exitY=1;exitDx=0;exitDy=0;exitPerimeter=0;entryX=0;entryY=0.5;entryDx=0;entryDy=0;entryPerimeter=0;" edge="1" parent="1" source="jqPJKUNV1gk7dgje5MiJ-72">
          <mxGeometry relative="1" as="geometry">
            <mxPoint x="1335" y="180" as="sourcePoint" />
            <mxPoint x="1465" y="205" as="targetPoint" />
            <Array as="points">
              <mxPoint x="1330" y="205" />
            </Array>
          </mxGeometry>
        </mxCell>
        <mxCell id="jqPJKUNV1gk7dgje5MiJ-78" value="True" style="edgeLabel;resizable=0;html=1;align=center;verticalAlign=middle;" connectable="0" vertex="1" parent="jqPJKUNV1gk7dgje5MiJ-77">
          <mxGeometry relative="1" as="geometry" />
        </mxCell>
        <mxCell id="jqPJKUNV1gk7dgje5MiJ-79" value="True" style="edgeLabel;resizable=0;html=1;align=center;verticalAlign=middle;" connectable="0" vertex="1" parent="1">
          <mxGeometry x="844.66" y="-35.00241379310353" as="geometry" />
        </mxCell>
        <mxCell id="jqPJKUNV1gk7dgje5MiJ-80" value="CallDay.Notifications.Contact.NotifStyle.Db" style="strokeWidth=2;html=1;shape=mxgraph.flowchart.database;whiteSpace=wrap;" vertex="1" parent="1">
          <mxGeometry x="350" y="1880" width="300" height="230" as="geometry" />
        </mxCell>
      </root>
    </mxGraphModel>
  </diagram>
</mxfile>
